# xmcd
#
# Track frame offsets: 
#        150
#        19244
#        32293
#        53355
#        67720
#        86299
#        93906
#        107883
#        128485
#        144843
#        159520
#        176623
#        190371
#        198549
#        218157
#        222425
#
# Disc length: 3335 seconds
#
# Revision: 0
# Processed by: cddbd v1.5.2PL0 Copyright (c) Steve Scherf et al.
# Submitted via: ExactAudioCopyFreeDBPlugin 1.0
#
DISCID=cc0d0510
DTITLE=Pino Daniele - Nero a metà - extended edition
DYEAR=2014
DGENRE=Blues
TTITLE0=I say i' sto ccà
TTITLE1=Musica musica
TTITLE2=Quanno chiove
TTITLE3=Puozze passà nu guaio
TTITLE4=Voglio di più
TTITLE5=Appocundria
TTITLE6=A me me piace 'o blues
TTITLE7=E so' cuntento 'e stà
TTITLE8=Nun me scuccià
TTITLE9=Alleria
TTITLE10=A testa in giù
TTITLE11=Sotto 'o sole
TTITLE12=Tira 'a carretta - bonus track
TTITLE13=Sotto 'o sole - versione alternativa
TTITLE14=Hotel Regina - bonus track
TTITLE15=Na voglia 'e jastemmà - demo e studio session
EXTD=
EXTT0=
EXTT1=
EXTT2=
EXTT3=
EXTT4=
EXTT5=
EXTT6=
EXTT7=
EXTT8=
EXTT9=
EXTT10=
EXTT11=
EXTT12=
EXTT13=
EXTT14=
EXTT15=
PLAYORDER=
